M48
; DRILL file KiCad 10.0.5 date 2026-09-10T15:05:11
; FORMAT={-:-/ absolute / metric / decimal}
; #@! TF.CreationDate,2026-09-10T15:05:11+02:00
; #@! TF.GenerationSoftware,Kicad,Pcbnew,10.0.5
; #@! TF.FileFunction,Plated,1,2,PTH
FMAT,2
METRIC
; #@! TA.AperFunction,Plated,PTH,ViaDrill
T1C0.300
; #@! TA.AperFunction,Plated,PTH,ComponentDrill
T2C1.000
; #@! TA.AperFunction,Plated,PTH,ComponentDrill
T3C1.500
%
G90
G05
T1
X144.93Y-97.9
X146.817Y-98.047
X148.775Y-100.32
X148.775Y-102.86
X148.775Y-105.4
X164.94Y-92.7
X164.94Y-95.24
X164.94Y-97.78
X164.94Y-100.32
X164.94Y-102.86
X164.94Y-105.4
X164.94Y-107.94
T2
X120.92Y-105.8
X123.46Y-105.8
X126.0Y-105.8
X128.54Y-105.8
X131.08Y-105.8
X133.62Y-105.8
X136.16Y-105.8
X138.7Y-105.8
X186.77Y-100.7
X186.77Y-108.3
T3
X122.1Y-117.93
X128.45Y-115.39
X141.23Y-117.93
X147.58Y-115.39
X160.14Y-117.93
X166.49Y-115.39
X179.41Y-117.97
X185.76Y-115.43
M30
